<svg width="45" height="28" viewBox="0 0 45 28" fill="none" xmlns="http://www.w3.org/2000/svg">
<path d="M13.4335 12.5379C14.2806 13.3286 14.2806 14.6714 13.4335 15.4621L3.36463 24.8597C2.08619 26.0529 7.71618e-08 25.1463 1.24447e-07 23.3976L6.32657e-07 4.60244C6.79942e-07 2.85368 2.0862 1.94712 3.36464 3.14033L13.4335 12.5379Z" fill="#D9D9D9" fill-opacity="0.41"/>
<path d="M28.4335 12.5379C29.2806 13.3286 29.2806 14.6714 28.4335 15.4621L18.3646 24.8597C17.0862 26.0529 15 25.1463 15 23.3976L15 4.60244C15 2.85368 17.0862 1.94712 18.3646 3.14033L28.4335 12.5379Z" fill="#D9D9D9" fill-opacity="0.51"/>
<path d="M43.4335 12.5379C44.2806 13.3286 44.2806 14.6714 43.4335 15.4621L33.3646 24.8597C32.0862 26.0529 30 25.1463 30 23.3976L30 4.60244C30 2.85368 32.0862 1.94712 33.3646 3.14033L43.4335 12.5379Z" fill="#D9D9D9"/>
</svg>
