<svg width="49" height="48" viewBox="0 0 49 48" fill="none" xmlns="http://www.w3.org/2000/svg">
<path d="M46.2079 15.1298L29.2319 1.58055C26.6108 -0.522757 22.373 -0.522757 19.7764 1.5561L2.8004 15.1298C0.889693 16.6461 -0.335122 19.8499 0.0813148 22.2467L3.33932 41.7145C3.92723 45.1874 7.25873 48 10.7862 48H38.2221C41.725 48 45.081 45.163 45.6689 41.7145L48.9269 22.2467C49.3189 19.8499 48.0941 16.6461 46.2079 15.1298ZM24.5041 32.5676C21.1236 32.5676 18.38 29.8284 18.38 26.4533C18.38 23.0782 21.1236 20.339 24.5041 20.339C27.8846 20.339 30.6282 23.0782 30.6282 26.4533C30.6282 29.8284 27.8846 32.5676 24.5041 32.5676Z" fill="#292D32"/>
</svg>
